<mxfile host="app.diagrams.net" modified="2025-01-15T00:00:00.000Z" agent="5.0" version="24.0.0" etag="draw.io" type="device">
  <diagram name="System Components" id="system-components">
    <mxGraphModel dx="1434" dy="844" grid="1" gridSize="10" guides="1" tooltips="1" connect="1" arrows="1" fold="1" page="1" pageScale="1" pageWidth="1169" pageHeight="827" math="0" shadow="0">
      <root>
        <mxCell id="0" />
        <mxCell id="1" parent="0" />
        
        <!-- Title -->
        <mxCell id="title" value="System Components and Relationships" style="text;html=1;strokeColor=none;fillColor=none;align=center;verticalAlign=middle;whiteSpace=wrap;rounded=0;fontSize=20;fontStyle=1" vertex="1" parent="1">
          <mxGeometry x="384.5" y="20" width="400" height="40" as="geometry" />
        </mxCell>
        
        <!-- USER INTERFACE LAYER -->
        <mxCell id="ui-layer-container" value="" style="rounded=1;whiteSpace=wrap;html=1;fillColor=#dae8fc;strokeColor=#6c8ebf;strokeWidth=2;" vertex="1" parent="1">
          <mxGeometry x="184.5" y="80" width="800" height="100" as="geometry" />
        </mxCell>
        
        <mxCell id="ui-layer-title" value="USER INTERFACE LAYER" style="text;html=1;strokeColor=none;fillColor=none;align=center;verticalAlign=middle;whiteSpace=wrap;rounded=0;fontSize=14;fontStyle=1" vertex="1" parent="1">
          <mxGeometry x="484.5" y="90" width="200" height="20" as="geometry" />
        </mxCell>
        
        <mxCell id="customer-ui" value="Customer Screen" style="rounded=1;whiteSpace=wrap;html=1;fillColor=#e1d5e7;strokeColor=#9673a6;" vertex="1" parent="1">
          <mxGeometry x="214.5" y="120" width="160" height="50" as="geometry" />
        </mxCell>
        
        <mxCell id="therapist-ui" value="Therapist Screen" style="rounded=1;whiteSpace=wrap;html=1;fillColor=#e1d5e7;strokeColor=#9673a6;" vertex="1" parent="1">
          <mxGeometry x="404.5" y="120" width="160" height="50" as="geometry" />
        </mxCell>
        
        <mxCell id="cashier-ui" value="Cashier Screen" style="rounded=1;whiteSpace=wrap;html=1;fillColor=#e1d5e7;strokeColor=#9673a6;" vertex="1" parent="1">
          <mxGeometry x="594.5" y="120" width="160" height="50" as="geometry" />
        </mxCell>
        
        <mxCell id="monitor-ui" value="Monitor Dashboard" style="rounded=1;whiteSpace=wrap;html=1;fillColor=#e1d5e7;strokeColor=#9673a6;" vertex="1" parent="1">
          <mxGeometry x="784.5" y="120" width="160" height="50" as="geometry" />
        </mxCell>
        
        <!-- Connection Label -->
        <mxCell id="connection-label-1" value="User Actions &amp; Real-Time Updates" style="text;html=1;strokeColor=none;fillColor=none;align=center;verticalAlign=middle;whiteSpace=wrap;rounded=0;fontSize=12;fontStyle=2" vertex="1" parent="1">
          <mxGeometry x="434.5" y="190" width="300" height="20" as="geometry" />
        </mxCell>
        
        <!-- Arrows from UI to Processing -->
        <mxCell id="arrow-ui-1" value="" style="endArrow=classic;startArrow=classic;html=1;rounded=0;exitX=0.5;exitY=1;exitDx=0;exitDy=0;entryX=0.2;entryY=0;entryDx=0;entryDy=0;strokeWidth=2;strokeColor=#666666;" edge="1" parent="1" source="customer-ui" target="processing-layer-container">
          <mxGeometry width="50" height="50" relative="1" as="geometry">
            <mxPoint x="294.5" y="180" as="sourcePoint" />
            <mxPoint x="344.5" y="130" as="targetPoint" />
          </mxGeometry>
        </mxCell>
        
        <mxCell id="arrow-ui-2" value="" style="endArrow=classic;startArrow=classic;html=1;rounded=0;exitX=0.5;exitY=1;exitDx=0;exitDy=0;entryX=0.4;entryY=0;entryDx=0;entryDy=0;strokeWidth=2;strokeColor=#666666;" edge="1" parent="1" source="therapist-ui" target="processing-layer-container">
          <mxGeometry width="50" height="50" relative="1" as="geometry">
            <mxPoint x="484.5" y="180" as="sourcePoint" />
            <mxPoint x="534.5" y="130" as="targetPoint" />
          </mxGeometry>
        </mxCell>
        
        <mxCell id="arrow-ui-3" value="" style="endArrow=classic;startArrow=classic;html=1;rounded=0;exitX=0.5;exitY=1;exitDx=0;exitDy=0;entryX=0.6;entryY=0;entryDx=0;entryDy=0;strokeWidth=2;strokeColor=#666666;" edge="1" parent="1" source="cashier-ui" target="processing-layer-container">
          <mxGeometry width="50" height="50" relative="1" as="geometry">
            <mxPoint x="674.5" y="180" as="sourcePoint" />
            <mxPoint x="724.5" y="130" as="targetPoint" />
          </mxGeometry>
        </mxCell>
        
        <mxCell id="arrow-ui-4" value="" style="endArrow=classic;startArrow=classic;html=1;rounded=0;exitX=0.5;exitY=1;exitDx=0;exitDy=0;entryX=0.8;entryY=0;entryDx=0;entryDy=0;strokeWidth=2;strokeColor=#666666;" edge="1" parent="1" source="monitor-ui" target="processing-layer-container">
          <mxGeometry width="50" height="50" relative="1" as="geometry">
            <mxPoint x="864.5" y="180" as="sourcePoint" />
            <mxPoint x="914.5" y="130" as="targetPoint" />
          </mxGeometry>
        </mxCell>
        
        <!-- PROCESSING LAYER -->
        <mxCell id="processing-layer-container" value="" style="rounded=1;whiteSpace=wrap;html=1;fillColor=#fff2cc;strokeColor=#d6b656;strokeWidth=2;" vertex="1" parent="1">
          <mxGeometry x="184.5" y="230" width="800" height="280" as="geometry" />
        </mxCell>
        
        <mxCell id="processing-layer-title" value="PROCESSING LAYER" style="text;html=1;strokeColor=none;fillColor=none;align=center;verticalAlign=middle;whiteSpace=wrap;rounded=0;fontSize=14;fontStyle=1" vertex="1" parent="1">
          <mxGeometry x="484.5" y="240" width="200" height="20" as="geometry" />
        </mxCell>
        
        <!-- Real-Time Communication System -->
        <mxCell id="realtime-comm" value="Real-Time Communication System" style="rounded=1;whiteSpace=wrap;html=1;fillColor=#f8cecc;strokeColor=#b85450;fontSize=12;fontStyle=1" vertex="1" parent="1">
          <mxGeometry x="234.5" y="270" width="700" height="40" as="geometry" />
        </mxCell>
        
        <!-- Three Systems -->
        <mxCell id="security-system" value="Security System" style="rounded=1;whiteSpace=wrap;html=1;fillColor=#d5e8d4;strokeColor=#82b366;" vertex="1" parent="1">
          <mxGeometry x="234.5" y="330" width="200" height="60" as="geometry" />
        </mxCell>
        
        <mxCell id="queue-system" value="Queue Management System" style="rounded=1;whiteSpace=wrap;html=1;fillColor=#d5e8d4;strokeColor=#82b366;" vertex="1" parent="1">
          <mxGeometry x="484.5" y="330" width="200" height="60" as="geometry" />
        </mxCell>
        
        <mxCell id="payment-system" value="Payment System" style="rounded=1;whiteSpace=wrap;html=1;fillColor=#d5e8d4;strokeColor=#82b366;" vertex="1" parent="1">
          <mxGeometry x="734.5" y="330" width="200" height="60" as="geometry" />
        </mxCell>
        
        <!-- Business Rules -->
        <mxCell id="business-rules" value="Business Rules &amp; Request Processing" style="rounded=1;whiteSpace=wrap;html=1;fillColor=#ffe6cc;strokeColor=#d79b00;fontSize=12;fontStyle=1" vertex="1" parent="1">
          <mxGeometry x="234.5" y="410" width="700" height="80" as="geometry" />
        </mxCell>
        
        <!-- Connection Label -->
        <mxCell id="connection-label-2" value="Data Storage &amp; Retrieval" style="text;html=1;strokeColor=none;fillColor=none;align=center;verticalAlign=middle;whiteSpace=wrap;rounded=0;fontSize=12;fontStyle=2" vertex="1" parent="1">
          <mxGeometry x="484.5" y="520" width="200" height="20" as="geometry" />
        </mxCell>
        
        <!-- Arrow from Processing to Database -->
        <mxCell id="arrow-processing-db" value="" style="endArrow=classic;startArrow=classic;html=1;rounded=0;exitX=0.5;exitY=1;exitDx=0;exitDy=0;entryX=0.5;entryY=0;entryDx=0;entryDy=0;strokeWidth=2;strokeColor=#666666;" edge="1" parent="1" source="processing-layer-container" target="database-layer-container">
          <mxGeometry width="50" height="50" relative="1" as="geometry">
            <mxPoint x="584.5" y="520" as="sourcePoint" />
            <mxPoint x="634.5" y="470" as="targetPoint" />
          </mxGeometry>
        </mxCell>
        
        <!-- DATABASE LAYER -->
        <mxCell id="database-layer-container" value="" style="rounded=1;whiteSpace=wrap;html=1;fillColor=#f5f5f5;strokeColor=#666666;strokeWidth=2;" vertex="1" parent="1">
          <mxGeometry x="184.5" y="560" width="800" height="100" as="geometry" />
        </mxCell>
        
        <mxCell id="database-layer-title" value="DATABASE LAYER" style="text;html=1;strokeColor=none;fillColor=none;align=center;verticalAlign=middle;whiteSpace=wrap;rounded=0;fontSize=14;fontStyle=1" vertex="1" parent="1">
          <mxGeometry x="484.5" y="570" width="200" height="20" as="geometry" />
        </mxCell>
        
        <mxCell id="db-services" value="Services" style="shape=cylinder3;whiteSpace=wrap;html=1;boundedLbl=1;backgroundOutline=1;size=15;fillColor=#e1d5e7;strokeColor=#9673a6;" vertex="1" parent="1">
          <mxGeometry x="234.5" y="600" width="100" height="50" as="geometry" />
        </mxCell>
        
        <mxCell id="db-transactions" value="Transactions" style="shape=cylinder3;whiteSpace=wrap;html=1;boundedLbl=1;backgroundOutline=1;size=15;fillColor=#e1d5e7;strokeColor=#9673a6;" vertex="1" parent="1">
          <mxGeometry x="364.5" y="600" width="100" height="50" as="geometry" />
        </mxCell>
        
        <mxCell id="db-users" value="Users" style="shape=cylinder3;whiteSpace=wrap;html=1;boundedLbl=1;backgroundOutline=1;size=15;fillColor=#e1d5e7;strokeColor=#9673a6;" vertex="1" parent="1">
          <mxGeometry x="494.5" y="600" width="100" height="50" as="geometry" />
        </mxCell>
        
        <mxCell id="db-payments" value="Payments" style="shape=cylinder3;whiteSpace=wrap;html=1;boundedLbl=1;backgroundOutline=1;size=15;fillColor=#e1d5e7;strokeColor=#9673a6;" vertex="1" parent="1">
          <mxGeometry x="624.5" y="600" width="100" height="50" as="geometry" />
        </mxCell>
        
        <mxCell id="db-logs" value="Logs" style="shape=cylinder3;whiteSpace=wrap;html=1;boundedLbl=1;backgroundOutline=1;size=15;fillColor=#e1d5e7;strokeColor=#9673a6;" vertex="1" parent="1">
          <mxGeometry x="754.5" y="600" width="100" height="50" as="geometry" />
        </mxCell>
        
        <!-- Legend -->
        <mxCell id="legend-title" value="Legend:" style="text;html=1;strokeColor=none;fillColor=none;align=left;verticalAlign=middle;whiteSpace=wrap;rounded=0;fontSize=12;fontStyle=1" vertex="1" parent="1">
          <mxGeometry x="184.5" y="680" width="60" height="20" as="geometry" />
        </mxCell>
        
        <mxCell id="legend-1" value="User Interfaces" style="rounded=1;whiteSpace=wrap;html=1;fillColor=#e1d5e7;strokeColor=#9673a6;fontSize=10;" vertex="1" parent="1">
          <mxGeometry x="184.5" y="710" width="100" height="30" as="geometry" />
        </mxCell>
        
        <mxCell id="legend-2" value="Core Systems" style="rounded=1;whiteSpace=wrap;html=1;fillColor=#d5e8d4;strokeColor=#82b366;fontSize=10;" vertex="1" parent="1">
          <mxGeometry x="304.5" y="710" width="100" height="30" as="geometry" />
        </mxCell>
        
        <mxCell id="legend-3" value="Communication" style="rounded=1;whiteSpace=wrap;html=1;fillColor=#f8cecc;strokeColor=#b85450;fontSize=10;" vertex="1" parent="1">
          <mxGeometry x="424.5" y="710" width="100" height="30" as="geometry" />
        </mxCell>
        
        <mxCell id="legend-4" value="Business Logic" style="rounded=1;whiteSpace=wrap;html=1;fillColor=#ffe6cc;strokeColor=#d79b00;fontSize=10;" vertex="1" parent="1">
          <mxGeometry x="544.5" y="710" width="100" height="30" as="geometry" />
        </mxCell>
        
        <mxCell id="legend-5" value="Data Flow" style="endArrow=classic;startArrow=classic;html=1;rounded=0;strokeWidth=2;strokeColor=#666666;fontSize=10;" edge="1" parent="1">
          <mxGeometry width="50" height="50" relative="1" as="geometry">
            <mxPoint x="664.5" y="725" as="sourcePoint" />
            <mxPoint x="744.5" y="725" as="targetPoint" />
          </mxGeometry>
        </mxCell>
        
      </root>
    </mxGraphModel>
  </diagram>
</mxfile>
